# xmcd
#
# Track frame offsets: 
#        150
#        21415
#        44477
#        70312
#        91952
#        114975
#        138672
#        159510
#        185682
#        208860
#        229722
#        257282
#
# Disc length: 3760 seconds
#
# Revision: 2
# Processed by: cddbd v1.5.1PL0 Copyright (c) Steve Scherf et al.
# Submitted via: ExactAudioCopy v0.90b3
#
DISCID=a80eae0c
DTITLE=Smokey Wilson - The Man From Mars
DYEAR=1997
DGENRE=Blues
TTITLE0=Thanks for Making Me a Star
TTITLE1=Something Inside of Me
TTITLE2=The Man from Mars
TTITLE3=44 Blues
TTITLE4=Louise
TTITLE5=Too Drunk to Drive
TTITLE6=You Don't Drink What I Drink
TTITLE7=Black Widow
TTITLE8=Just Like A Mountain
TTITLE9=Don't Want to Tangle with Me
TTITLE10=Doctor Blues
TTITLE11=Easy Baby
EXTD=
EXTT0=
EXTT1=
EXTT2=
EXTT3=
EXTT4=
EXTT5=
EXTT6=
EXTT7=
EXTT8=
EXTT9=
EXTT10=
EXTT11=
PLAYORDER=
